<svg xmlns="http://www.w3.org/2000/svg" xmlns:xlink="http://www.w3.org/1999/xlink" preserveAspectRatio="xMidYMid" width="479" height="188" viewBox="0 0 479 188">
  <path d="M474.962,70.887 C474.554,69.561 474.044,67.622 473.738,63.950 C471.290,68.846 467.617,71.907 462.517,71.907 C455.581,71.907 450.787,66.602 450.787,57.218 C450.787,47.221 456.907,41.305 467.005,41.305 C467.005,41.305 473.534,41.305 473.534,41.305 C473.534,41.305 473.534,33.859 473.534,33.859 C473.534,25.902 470.576,22.434 464.965,22.434 C460.579,22.434 457.009,24.678 454.561,28.248 C454.561,28.248 453.337,23.862 453.337,23.862 C455.377,21.210 459.151,18.456 464.965,18.456 C473.330,18.456 478.022,23.148 478.022,33.859 C478.022,33.859 478.022,61.400 478.022,61.400 C478.022,64.970 478.532,68.948 479.144,70.887 C479.144,70.887 474.962,70.887 474.962,70.887 ZM473.534,44.569 C473.534,44.569 467.107,44.569 467.107,44.569 C459.559,44.569 455.275,48.955 455.275,57.014 C455.275,64.358 458.539,68.234 463.537,68.234 C468.332,68.234 471.698,63.644 473.534,58.136 C473.534,58.136 473.534,44.569 473.534,44.569 ZM437.427,45.997 C437.427,45.997 419.678,45.997 419.678,45.997 C419.678,45.997 419.678,70.887 419.678,70.887 C419.678,70.887 415.088,70.887 415.088,70.887 C415.088,70.887 415.088,19.476 415.088,19.476 C415.088,19.476 419.678,19.476 419.678,19.476 C419.678,19.476 419.678,42.325 419.678,42.325 C419.678,42.325 437.427,42.325 437.427,42.325 C437.427,42.325 437.427,19.476 437.427,19.476 C437.427,19.476 442.017,19.476 442.017,19.476 C442.017,19.476 442.017,70.887 442.017,70.887 C442.017,70.887 437.427,70.887 437.427,70.887 C437.427,70.887 437.427,45.997 437.427,45.997 ZM397.280,34.471 C397.280,31.921 397.484,29.779 397.688,27.636 C397.688,27.636 397.382,27.636 397.382,27.636 C396.668,29.881 395.750,32.023 394.730,34.165 C394.730,34.165 377.695,70.887 377.695,70.887 C377.695,70.887 373.819,70.887 373.819,70.887 C373.819,70.887 373.819,19.476 373.819,19.476 C373.819,19.476 378.103,19.476 378.103,19.476 C378.103,19.476 378.103,55.892 378.103,55.892 C378.103,58.442 377.899,60.584 377.695,62.726 C377.695,62.726 378.001,62.726 378.001,62.726 C378.715,60.482 379.633,58.340 380.653,56.198 C380.653,56.198 397.688,19.476 397.688,19.476 C397.688,19.476 401.666,19.476 401.666,19.476 C401.666,19.476 401.666,70.887 401.666,70.887 C401.666,70.887 397.280,70.887 397.280,70.887 C397.280,70.887 397.280,34.471 397.280,34.471 ZM387.896,14.988 C381.877,14.988 378.307,11.010 378.307,4.787 C378.307,4.787 382.591,4.787 382.591,4.787 C382.591,9.480 384.428,11.724 387.896,11.724 C391.466,11.724 393.302,9.480 393.302,4.787 C393.302,4.787 397.484,4.787 397.484,4.787 C397.484,11.010 394.016,14.988 387.896,14.988 ZM362.355,177.849 C362.355,177.849 358.668,177.849 358.668,177.849 C358.125,177.849 357.909,177.741 357.692,177.201 C357.692,177.201 356.390,173.955 356.390,173.955 C354.114,176.876 350.643,179.039 346.848,179.039 C340.016,179.039 334.160,171.900 334.160,161.731 C334.160,152.644 339.148,143.990 348.149,143.990 C349.884,143.990 353.355,144.856 355.197,145.937 C355.197,145.937 355.197,144.856 355.197,144.856 C355.197,141.503 354.872,138.366 353.897,136.093 C352.812,133.713 351.402,132.308 348.800,132.308 C346.522,132.308 343.487,134.255 341.426,135.553 C340.884,135.877 340.450,135.769 340.125,135.012 C340.125,135.012 337.956,130.576 337.956,130.576 C337.630,129.819 337.522,128.954 338.715,128.522 C341.860,127.115 346.522,125.925 349.776,125.925 C354.331,125.925 358.451,128.089 360.728,132.523 C362.572,136.093 363.114,141.503 363.114,148.426 C363.114,148.426 363.114,177.092 363.114,177.092 C363.114,177.633 362.680,177.849 362.355,177.849 ZM355.197,152.644 C353.355,150.914 350.860,150.373 348.800,150.373 C344.678,150.373 342.619,155.890 342.619,161.407 C342.619,164.868 343.270,167.897 344.678,170.061 C345.871,171.684 347.498,172.549 349.342,172.549 C351.294,172.549 353.355,171.684 355.197,169.845 C355.197,169.845 355.197,152.644 355.197,152.644 ZM357.344,63.950 C354.896,68.846 351.223,71.907 346.123,71.907 C339.187,71.907 334.393,66.602 334.393,57.218 C334.393,47.221 340.513,41.305 350.611,41.305 C350.611,41.305 357.140,41.305 357.140,41.305 C357.140,41.305 357.140,33.859 357.140,33.859 C357.140,25.902 354.182,22.434 348.571,22.434 C344.185,22.434 340.615,24.678 338.167,28.248 C338.167,28.248 336.943,23.862 336.943,23.862 C338.983,21.210 342.757,18.456 348.571,18.456 C356.936,18.456 361.628,23.148 361.628,33.859 C361.628,33.859 361.628,61.400 361.628,61.400 C361.628,64.970 362.138,68.948 362.750,70.887 C362.750,70.887 358.568,70.887 358.568,70.887 C358.160,69.561 357.650,67.622 357.344,63.950 ZM357.140,44.569 C357.140,44.569 350.713,44.569 350.713,44.569 C343.165,44.569 338.881,48.955 338.881,57.014 C338.881,64.358 342.145,68.234 347.143,68.234 C351.937,68.234 355.304,63.644 357.140,58.136 C357.140,58.136 357.140,44.569 357.140,44.569 ZM319.484,179.241 C309.309,179.241 302.186,170.410 302.186,155.083 C302.186,137.321 309.615,125.953 319.179,125.953 C321.621,125.953 324.469,126.358 328.641,128.490 C329.252,128.795 329.659,129.099 329.659,129.505 C329.659,129.809 329.557,130.115 329.354,130.419 C329.354,130.419 326.606,134.884 326.606,134.884 C326.301,135.392 325.996,135.595 325.690,135.595 C325.385,135.595 325.182,135.494 324.877,135.190 C322.130,132.651 320.400,132.246 318.976,132.246 C313.684,132.246 310.530,142.497 310.530,152.851 C310.530,164.625 314.294,172.034 322.028,172.034 C325.996,172.034 328.743,170.918 329.252,170.918 C329.557,170.918 329.659,171.020 329.761,171.324 C329.761,171.324 330.575,174.774 330.575,174.774 C330.676,175.181 330.575,175.586 330.168,175.891 C328.336,177.211 323.757,179.241 319.484,179.241 ZM312.665,71.907 C304.402,71.907 300.424,66.194 300.424,66.194 C300.424,66.194 301.954,62.420 301.954,62.420 C301.954,62.420 305.524,67.928 312.563,67.928 C317.969,67.928 322.253,63.950 322.253,56.300 C322.253,49.670 319.091,45.181 311.441,45.181 C311.441,45.181 307.054,45.181 307.054,45.181 C307.054,45.181 307.054,41.509 307.054,41.509 C307.054,41.509 310.829,41.509 310.829,41.509 C316.847,41.509 321.029,37.939 321.029,31.003 C321.029,25.800 318.275,22.434 313.175,22.434 C308.482,22.434 305.116,25.086 302.872,28.248 C302.872,28.248 301.648,23.862 301.648,23.862 C303.892,20.904 307.666,18.456 313.175,18.456 C321.131,18.456 325.415,23.454 325.415,30.901 C325.415,35.797 323.375,40.285 317.765,43.039 C324.293,45.385 326.945,50.690 326.945,56.198 C326.945,66.296 320.417,71.907 312.665,71.907 ZM286.519,150.110 C286.519,150.110 300.765,177.313 300.765,177.313 C300.968,177.617 300.866,178.023 300.459,178.023 C300.459,178.023 293.947,178.023 293.947,178.023 C292.624,178.023 291.708,177.717 291.097,176.500 C291.097,176.500 279.499,152.749 279.499,152.749 C279.296,152.343 279.092,152.038 278.786,151.835 C278.786,151.835 278.786,177.313 278.786,177.313 C278.786,177.717 278.584,178.023 278.176,178.023 C278.176,178.023 271.562,178.023 271.562,178.023 C271.155,178.023 270.951,177.617 270.951,177.313 C270.951,177.313 270.951,127.881 270.951,127.881 C270.951,127.475 271.257,127.170 271.562,127.170 C271.562,127.170 278.176,127.170 278.176,127.170 C278.584,127.170 278.786,127.475 278.786,127.881 C278.786,127.881 278.786,150.211 278.786,150.211 C279.296,149.906 279.804,149.196 280.313,148.080 C280.313,148.080 289.470,129.099 289.470,129.099 C290.081,127.779 290.692,127.170 292.420,127.170 C292.420,127.170 298.424,127.170 298.424,127.170 C298.831,127.170 298.933,127.576 298.729,127.881 C298.729,127.881 286.519,150.110 286.519,150.110 ZM287.455,34.471 C287.455,31.921 287.659,29.779 287.863,27.636 C287.863,27.636 287.557,27.636 287.557,27.636 C286.843,29.881 285.925,32.023 284.905,34.165 C284.905,34.165 267.870,70.887 267.870,70.887 C267.870,70.887 263.994,70.887 263.994,70.887 C263.994,70.887 263.994,19.476 263.994,19.476 C263.994,19.476 268.278,19.476 268.278,19.476 C268.278,19.476 268.278,55.892 268.278,55.892 C268.278,58.442 268.074,60.584 267.870,62.726 C267.870,62.726 268.176,62.726 268.176,62.726 C268.890,60.482 269.808,58.340 270.828,56.198 C270.828,56.198 287.863,19.476 287.863,19.476 C287.863,19.476 291.841,19.476 291.841,19.476 C291.841,19.476 291.841,70.887 291.841,70.887 C291.841,70.887 287.455,70.887 287.455,70.887 C287.455,70.887 287.455,34.471 287.455,34.471 ZM241.881,153.899 C241.881,153.899 241.881,155.083 241.881,156.301 C241.881,165.233 245.544,172.034 253.379,172.034 C257.551,172.034 260.501,170.918 260.908,170.918 C261.417,170.918 261.620,171.120 261.722,171.526 C261.722,171.526 262.536,174.977 262.536,174.977 C262.638,175.383 262.536,175.688 262.129,175.891 C259.890,177.313 255.515,179.241 250.529,179.241 C240.354,179.241 233.436,170.106 233.436,154.779 C233.436,139.756 238.320,125.953 249.309,125.953 C257.449,125.953 263.045,134.378 263.045,150.110 C263.045,150.110 263.045,154.373 263.045,154.373 C263.045,154.373 248.190,154.373 248.190,154.373 C245.850,154.373 241.881,153.899 241.881,153.899 ZM254.803,144.528 C254.295,136.712 252.260,132.246 249.004,132.246 C245.442,132.246 243.305,136.610 242.390,145.238 C242.186,146.861 242.186,148.384 242.186,148.384 C242.186,148.384 245.850,147.978 248.190,147.978 C248.190,147.978 254.905,147.978 254.905,147.978 C254.905,147.978 254.905,146.151 254.803,144.528 ZM250.959,70.887 C250.959,70.887 222.806,70.887 222.806,70.887 C222.806,70.887 222.194,80.985 222.194,80.985 C222.194,80.985 218.624,80.985 218.624,80.985 C218.624,80.985 218.624,67.112 218.624,67.112 C218.624,67.112 220.766,67.112 220.766,67.112 C223.928,65.378 225.866,58.238 226.886,48.547 C228.212,35.899 228.416,19.476 228.416,19.476 C228.416,19.476 250.449,19.476 250.449,19.476 C250.449,19.476 250.449,67.112 250.449,67.112 C250.449,67.112 255.142,67.112 255.142,67.112 C255.142,67.112 255.142,80.985 255.142,80.985 C255.142,80.985 251.571,80.985 251.571,80.985 C251.571,80.985 250.959,70.887 250.959,70.887 ZM245.757,23.148 C245.757,23.148 232.496,23.148 232.496,23.148 C232.496,23.148 232.190,37.633 230.864,49.670 C229.946,58.340 228.620,64.052 225.968,67.112 C225.968,67.112 245.757,67.112 245.757,67.112 C245.757,67.112 245.757,23.148 245.757,23.148 ZM225.231,127.881 C225.231,127.881 225.231,169.801 225.231,169.801 C225.231,171.020 225.637,171.628 227.164,171.628 C227.164,171.628 228.553,171.628 228.553,171.628 C229.060,171.628 229.366,171.932 229.366,172.440 C229.366,172.440 229.366,186.447 229.366,186.447 C229.366,187.463 228.755,187.969 228.144,187.969 C228.144,187.969 222.956,187.969 222.956,187.969 C222.548,187.969 222.244,187.665 222.244,187.259 C222.244,187.259 222.244,178.023 222.244,178.023 C222.244,178.023 200.469,178.023 200.469,178.023 C200.469,178.023 200.469,186.447 200.469,186.447 C200.469,187.157 200.062,187.969 198.942,187.969 C198.942,187.969 194.059,187.969 194.059,187.969 C193.754,187.969 193.347,187.767 193.347,187.259 C193.347,184.620 193.347,172.440 193.347,172.440 C193.347,171.932 193.551,171.628 194.161,171.628 C194.161,171.628 196.400,171.628 196.400,171.628 C202.912,159.650 203.624,143.817 203.624,131.535 C203.624,131.535 203.624,127.881 203.624,127.881 C203.624,127.475 203.929,127.170 204.438,127.170 C204.438,127.170 224.620,127.170 224.620,127.170 C225.027,127.170 225.231,127.373 225.231,127.881 ZM217.563,133.565 C217.563,133.565 211.051,133.565 211.051,133.565 C211.051,135.290 210.949,138.031 210.746,140.670 C210.034,152.851 207.999,162.797 202.810,171.628 C202.810,171.628 217.563,171.628 217.563,171.628 C217.563,171.628 217.563,133.565 217.563,133.565 ZM191.467,63.950 C189.019,68.846 185.347,71.907 180.247,71.907 C173.310,71.907 168.516,66.602 168.516,57.218 C168.516,47.221 174.636,41.305 184.735,41.305 C184.735,41.305 191.263,41.305 191.263,41.305 C191.263,41.305 191.263,33.859 191.263,33.859 C191.263,25.902 188.305,22.434 182.695,22.434 C178.309,22.434 174.738,24.678 172.290,28.248 C172.290,28.248 171.066,23.862 171.066,23.862 C173.106,21.210 176.880,18.456 182.695,18.456 C191.059,18.456 195.751,23.148 195.751,33.859 C195.751,33.859 195.751,61.400 195.751,61.400 C195.751,64.970 196.261,68.948 196.873,70.887 C196.873,70.887 192.691,70.887 192.691,70.887 C192.283,69.561 191.773,67.622 191.467,63.950 ZM191.263,44.569 C191.263,44.569 184.837,44.569 184.837,44.569 C177.288,44.569 173.004,48.955 173.004,57.014 C173.004,64.358 176.268,68.234 181.267,68.234 C186.061,68.234 189.427,63.644 191.263,58.136 C191.263,58.136 191.263,44.569 191.263,44.569 ZM168.549,147.268 C168.549,147.268 180.251,147.268 180.251,147.268 C180.251,147.268 180.251,127.881 180.251,127.881 C180.251,127.576 180.556,127.170 181.065,127.170 C181.065,127.170 187.038,127.170 187.038,127.170 C187.445,127.170 187.750,127.475 187.750,127.881 C187.750,127.881 187.750,177.211 187.750,177.211 C187.750,177.617 187.547,178.023 187.038,178.023 C187.038,178.023 181.065,178.023 181.065,178.023 C180.556,178.023 180.251,177.717 180.251,177.211 C180.251,177.211 180.251,153.663 180.251,153.663 C180.251,153.663 168.549,153.663 168.549,153.663 C168.549,153.663 168.549,177.211 168.549,177.211 C168.549,177.717 168.245,178.023 167.837,178.023 C167.837,178.023 161.595,178.023 161.595,178.023 C161.086,178.023 160.883,177.717 160.883,177.211 C160.883,177.211 160.883,127.881 160.883,127.881 C160.883,127.475 161.188,127.170 161.697,127.170 C161.697,127.170 167.837,127.170 167.837,127.170 C168.346,127.170 168.549,127.373 168.549,127.881 C168.549,127.881 168.549,147.268 168.549,147.268 ZM154.720,23.046 C154.720,23.046 142.173,23.046 142.173,23.046 C142.173,23.046 141.561,44.875 140.745,53.036 C139.521,64.664 137.379,71.397 129.831,71.193 C128.709,71.193 127.791,70.785 127.791,70.785 C127.791,70.785 128.709,66.500 128.709,66.500 C128.709,66.500 129.321,66.806 130.341,66.806 C133.707,66.806 135.849,61.910 136.563,52.424 C137.175,44.263 137.991,19.476 137.991,19.476 C137.991,19.476 159.412,19.476 159.412,19.476 C159.412,19.476 159.412,70.887 159.412,70.887 C159.412,70.887 154.720,70.887 154.720,70.887 C154.720,70.887 154.720,23.046 154.720,23.046 ZM108.118,71.907 C99.244,71.907 92.409,62.216 92.409,45.181 C92.409,28.044 99.244,18.456 108.118,18.456 C116.992,18.456 123.827,28.044 123.827,45.181 C123.827,62.216 116.992,71.907 108.118,71.907 ZM108.118,22.230 C101.998,22.230 96.897,29.473 96.897,45.181 C96.897,60.788 101.998,68.234 108.118,68.234 C114.238,68.234 119.135,60.788 119.135,45.181 C119.135,29.473 114.238,22.230 108.118,22.230 ZM84.926,70.887 C84.926,70.887 67.075,44.263 67.075,44.263 C67.075,44.263 67.075,70.887 67.075,70.887 C67.075,70.887 62.484,70.887 62.484,70.887 C62.484,70.887 62.484,19.476 62.484,19.476 C62.484,19.476 67.075,19.476 67.075,19.476 C67.075,19.476 67.075,43.651 67.075,43.651 C67.075,43.651 84.314,19.476 84.314,19.476 C84.314,19.476 88.700,19.476 88.700,19.476 C88.700,19.476 71.869,43.345 71.869,43.345 C71.869,43.345 89.924,70.887 89.924,70.887 C89.924,70.887 84.926,70.887 84.926,70.887 ZM0.005,-0.007 C0.005,-0.007 4.799,-0.007 4.799,-0.007 C4.799,-0.007 4.799,66.908 4.799,66.908 C4.799,66.908 21.834,66.908 21.834,66.908 C21.834,66.908 21.834,-0.007 21.834,-0.007 C21.834,-0.007 26.628,-0.007 26.628,-0.007 C26.628,-0.007 26.628,66.908 26.628,66.908 C26.628,66.908 43.663,66.908 43.663,66.908 C43.663,66.908 43.663,-0.007 43.663,-0.007 C43.663,-0.007 48.457,-0.007 48.457,-0.007 C48.457,-0.007 48.457,70.887 48.457,70.887 C48.457,70.887 0.005,70.887 0.005,70.887 C0.005,70.887 0.005,-0.007 0.005,-0.007 ZM129.490,148.424 C121.147,144.770 116.466,137.360 116.466,127.312 C116.466,110.564 126.132,101.936 137.528,101.936 C137.528,101.936 149.128,101.936 149.128,101.936 C149.840,101.936 150.247,102.241 150.247,102.952 C150.247,102.952 150.247,177.251 150.247,177.251 C150.247,177.757 150.043,178.063 149.433,178.063 C149.433,178.063 143.125,178.063 143.125,178.063 C142.718,178.063 142.412,177.656 142.412,177.352 C142.412,177.352 142.412,149.845 142.412,149.845 C142.412,149.845 137.325,149.845 137.325,149.845 C137.325,149.845 123.182,177.352 123.182,177.352 C122.979,177.859 122.571,178.063 121.961,178.063 C121.961,178.063 114.736,178.063 114.736,178.063 C113.922,178.063 113.413,177.352 113.922,176.439 C113.922,176.439 129.490,148.424 129.490,148.424 ZM138.138,143.349 C138.138,143.349 142.412,143.349 142.412,143.349 C142.412,143.349 142.412,108.433 142.412,108.433 C142.412,108.433 137.223,108.433 137.223,108.433 C131.016,108.433 124.911,113.609 124.911,126.297 C124.911,138.477 131.424,143.349 138.138,143.349 Z" id="path-1" class="cls-2" fill-rule="evenodd"/>
</svg>
